# Blender v2.93.0 OBJ File: 'bomb.blend'
# www.blender.org
o Cube
v -0.096848 0.180741 -0.983339
v -0.013635 0.483420 -0.888825
v -0.133915 0.713903 -0.696520
v -0.098293 -0.098971 -0.998026
v 0.080628 -0.378983 -0.925354
v -0.144603 -0.900034 -0.436227
v 0.015227 -1.000037 -0.107797
v 0.244343 0.558704 -0.796705
v 0.203095 0.777467 -0.606354
v 0.139268 0.923958 -0.361398
v 0.284670 -0.091053 -0.964967
v 0.082966 -0.633905 -0.779658
v 0.269445 -0.835869 -0.494967
v 0.142649 -0.927993 -0.360201
v 0.368120 0.297479 -0.895199
v 0.433403 -0.378931 -0.823355
v 0.445592 -0.636001 -0.648564
v 0.618376 0.204691 -0.765524
v 0.497466 0.638968 -0.599605
v 0.637751 -0.099053 -0.776200
v 0.190264 -0.982276 -0.072229
v 0.346666 0.924123 -0.185297
v 0.717718 -0.385889 -0.586599
v 0.804539 0.310778 -0.533740
v 0.502734 0.789139 -0.380881
v 0.864383 -0.126589 -0.500756
v 0.716249 -0.646831 -0.302839
v 0.538913 -0.838086 -0.147032
v 0.386589 -0.925523 -0.076897
v 0.808091 0.518163 -0.315025
v 0.548037 0.834685 -0.104135
v 0.887280 -0.391922 -0.261188
v 0.959112 0.292918 -0.111277
v 0.970355 -0.071082 -0.259736
v 0.764772 0.653956 -0.050543
v 0.371264 0.924084 0.124147
v 0.997609 0.000000 0.115954
v 0.961119 -0.293134 0.092938
v 0.777013 -0.638667 0.059188
v 0.928688 0.292918 0.264229
v 0.744334 0.638968 0.230140
v 0.513530 0.834685 0.217888
v 0.425069 -0.895940 0.182088
v 0.896589 -0.126590 0.440503
v 0.809612 -0.385203 0.451177
v 0.695216 -0.638667 0.352033
v 0.012229 -0.991532 0.184998
v 0.765762 0.098975 0.650062
v 0.693965 0.491477 0.542277
v 0.472675 0.780877 0.430755
v 0.600455 0.385203 0.706035
v 0.208262 0.923437 0.326565
v 0.637943 -0.196721 0.750115
v 0.551106 -0.475140 0.698090
v 0.375749 -0.791403 0.505949
v 0.541210 0.098529 0.840618
v 0.363590 0.638968 0.689057
v 0.296253 0.292918 0.918973
v 0.100069 0.836769 0.546065
v 0.291070 -0.099054 0.961504
v 0.242008 -0.475140 0.855851
v 0.072222 0.638968 0.775746
v -0.007476 0.924623 0.387245
v 0.053727 -0.898860 0.461403
v -0.077974 0.292918 0.962392
v -0.115954 0.000000 0.997609
v -0.092938 -0.293134 0.961118
v 0.064141 -0.655991 0.761199
v -0.218059 0.643822 0.742715
v -0.275439 0.834889 0.490720
v -0.209638 -0.638667 0.750536
v -0.488178 0.098975 0.877868
v -0.429269 0.391921 0.819276
v -0.287597 0.923335 0.273400
v -0.453668 -0.293134 0.852392
v -0.262489 -0.898095 0.379750
v -0.446403 0.654981 0.619649
v -0.446403 -0.654981 0.619649
v -0.786963 0.098975 0.624227
v -0.683308 0.468325 0.573808
v -0.750115 -0.196721 0.637943
v -0.698090 -0.475140 0.551106
v -0.589915 0.771881 0.273070
v -0.618959 -0.708715 0.344931
v -0.532508 -0.842014 0.151249
v -0.930050 0.098529 0.366815
v -0.845779 0.481430 0.266522
v -0.937146 -0.196721 0.302326
v -0.855851 -0.475140 0.242008
v -0.382929 -0.931472 -0.044238
v -0.184660 -0.984597 -0.083266
v -1.001138 0.098976 0.081812
v -0.388086 0.925743 -0.038223
v -0.709817 -0.712804 0.017661
v -0.875630 0.494580 -0.059140
v -0.616461 0.797237 -0.064405
v -0.981505 -0.196721 -0.079318
v -0.871975 -0.497895 -0.073110
v -0.959761 0.127071 -0.279394
v -0.846168 0.431949 -0.345501
v -0.882076 -0.385202 -0.284560
v -0.514586 -0.831849 -0.224239
v -0.540721 0.785509 -0.332763
v -0.885703 -0.099055 -0.474068
v -0.695216 -0.638667 -0.352032
v -0.762067 0.197140 -0.624132
v -0.300769 0.923606 -0.239292
v -0.553052 0.643671 -0.546261
v -0.623424 -0.000000 -0.787408
v -0.716132 -0.318415 -0.631785
v -0.412423 -0.781150 -0.483760
v -0.534651 0.296980 -0.808176
v -0.147031 0.838086 -0.538913
v -0.124147 0.924084 -0.371264
v -0.536571 -0.495467 -0.693930
v -0.340810 0.488878 -0.819542
v -0.442496 -0.115513 -0.899669
v -0.270864 -0.385889 -0.886482
v -0.235175 -0.643666 -0.739377
v 0.011857 1.023880 -0.396756
v 0.309544 1.023880 -0.239766
v 0.387445 1.023880 0.077068
v 0.223133 1.023880 0.316602
v -0.065775 1.023880 0.391446
v -0.339972 1.023880 0.194227
v -0.383179 1.023880 -0.037740
v -0.295548 1.023880 -0.256820
v 0.174820 1.434495 -0.027440
v 0.236118 1.373195 -0.039283
v 0.212003 1.397306 0.059189
v 0.026751 1.230696 -0.034690
v 0.078646 1.200673 -0.048822
v 0.100181 1.176493 0.020029
v 0.027411 1.232381 0.041129
v -0.056418 1.024224 -0.013136
v 0.014616 1.023783 0.056876
v 0.038918 1.023880 -0.038539
vt 0.828792 0.677080
vt 0.778449 0.628106
vt 0.870797 0.606442
vt 0.211125 0.486421
vt 0.145382 0.575100
vt 0.140638 0.486080
vt 0.277576 0.507556
vt 0.234130 0.593220
vt 0.951753 0.214595
vt 0.972228 0.137799
vt 0.989669 0.213499
vt 0.330944 0.482586
vt 0.295482 0.568347
vt 0.914033 0.148124
vt 0.075919 0.611298
vt 0.075919 0.528267
vt 0.018682 0.529995
vt 0.024577 0.617124
vt 0.827000 0.534327
vt 0.803986 0.593456
vt 0.789871 0.529060
vt 0.330944 0.562003
vt 0.312105 0.623407
vt 0.919548 0.065866
vt 0.211125 0.655395
vt 0.142734 0.658198
vt 0.075919 0.666464
vt 0.255024 0.679645
vt 0.035144 0.030477
vt 0.077208 0.029068
vt 0.018924 0.098234
vt 0.973285 0.067484
vt 0.926924 0.009225
vt 0.143599 0.001731
vt 0.235759 0.040179
vt 0.138324 0.044512
vt 0.679926 0.599321
vt 0.709261 0.556611
vt 0.745462 0.535558
vt 0.155097 0.101883
vt 0.874176 0.101590
vt 0.858639 0.051933
vt 0.079921 0.100235
vt 0.855052 0.014266
vt 0.237719 0.135684
vt 0.171252 0.185061
vt 0.020833 0.179174
vt 0.805519 0.093320
vt 0.784339 0.057369
vt 0.663460 0.515415
vt 0.726636 0.476519
vt 0.790858 0.017247
vt 0.318786 0.152337
vt 0.237764 0.222235
vt 0.821922 0.474869
vt 0.103354 0.180776
vt 0.020084 0.247912
vt 0.140114 0.259290
vt 0.079797 0.266774
vt 0.315224 0.216185
vt 0.331432 0.258890
vt 0.281531 0.287960
vt 0.191305 0.310715
vt 0.674898 0.452216
vt 0.732392 0.406111
vt 0.732737 0.066153
vt 0.057013 0.326792
vt 0.122475 0.326514
vt 0.520509 0.349613
vt 0.587538 0.374021
vt 0.520829 0.382654
vt 0.804406 0.408836
vt 0.645493 0.429432
vt 0.565471 0.443621
vt 0.475247 0.442398
vt 0.452331 0.364745
vt 0.757558 0.127163
vt 0.705184 0.149738
vt 0.388717 0.392160
vt 0.388717 0.453161
vt 0.345374 0.500247
vt 0.332513 0.434522
vt 0.793195 0.351668
vt 0.667596 0.152515
vt 0.680816 0.077628
vt 0.645493 0.494852
vt 0.565471 0.528817
vt 0.497985 0.535256
vt 0.670577 0.216709
vt 0.430610 0.530666
vt 0.350411 0.562798
vt 0.742117 0.175894
vt 0.717672 0.235527
vt 0.430610 0.615071
vt 0.587538 0.610853
vt 0.520509 0.620623
vt 0.857446 0.350534
vt 0.876400 0.420978
vt 0.646367 0.563677
vt 0.684669 0.276794
vt 0.346804 0.618960
vt 0.388717 0.674463
vt 0.452331 0.675121
vt 0.606453 0.659756
vt 0.520509 0.676615
vt 0.963459 0.418662
vt 0.945937 0.465047
vt 0.762355 0.309680
vt 0.769204 0.237630
vt 0.964914 0.376512
vt 0.917235 0.374059
vt 0.865512 0.523118
vt 0.664214 0.100387
vt 0.606367 0.102252
vt 0.607195 0.034965
vt 0.520176 0.019355
vt 0.449407 0.090350
vt 0.452476 0.016602
vt 0.389340 0.044093
vt 0.387102 0.104456
vt 0.518087 0.072232
vt 0.912262 0.512023
vt 0.836153 0.264305
vt 0.840109 0.317000
vt 0.332659 0.160860
vt 0.333645 0.102756
vt 0.516424 0.138643
vt 0.448264 0.177642
vt 0.379020 0.173980
vt 0.662853 0.178248
vt 0.610156 0.173227
vt 0.405540 0.227171
vt 0.594829 0.240729
vt 0.525416 0.219433
vt 0.990402 0.492457
vt 0.949952 0.551017
vt 0.350280 0.247976
vt 0.663543 0.241366
vt 0.472063 0.269854
vt 0.647098 0.287150
vt 0.905125 0.303460
vt 0.423831 0.311423
vt 0.541721 0.308042
vt 0.496704 0.329668
vt 0.932161 0.615035
vt 0.587811 0.332804
vt 0.368772 0.304253
vt 0.165472 0.367679
vt 0.138273 0.409928
vt 0.092269 0.357717
vt 0.912364 0.207716
vt 0.075919 0.447540
vt 0.050489 0.391601
vt 0.232742 0.389952
vt 0.905921 0.674319
vt 0.958202 0.302291
vt 0.965689 0.650183
vt 0.275981 0.432631
vt 0.017244 0.459913
vt 0.429146 0.758634
vt 0.405745 0.746148
vt 0.429146 0.703539
vt 0.382344 0.789075
vt 0.405745 0.759588
vt 0.405745 0.815965
vt 0.381209 0.732916
vt 0.358982 0.695501
vt 0.382344 0.695633
vt 0.381552 0.800913
vt 0.357744 0.743969
vt 0.333423 0.710466
vt 0.356700 0.714238
vt 0.332672 0.765284
vt 0.429146 0.806780
vt 0.358492 0.810443
vt 0.382344 0.729581
vt 0.405745 0.703026
vt 0.355924 0.765067
vt 0.357045 0.811691
vt 0.441063 0.754521
vt 0.438819 0.696287
vt 0.452459 0.700133
vt 0.503609 0.779656
vt 0.504032 0.735096
vt 0.512419 0.779554
vt 0.492492 0.696052
vt 0.484520 0.745081
vt 0.482985 0.696711
vt 0.495427 0.746988
vt 0.490026 0.794899
vt 0.460906 0.745771
vt 0.477277 0.701630
vt 0.474050 0.744262
vt 0.432574 0.754161
vt 0.449304 0.736684
vt 0.472431 0.801648
vt 0.452826 0.795754
vt 0.441334 0.802209
vt 0.512408 0.696447
vt 0.502230 0.695839
vt 0.521319 0.715580
vt 0.519823 0.699130
vt 0.530661 0.702889
vt 0.738285 0.667910
vt 0.211794 0.003473
vt 0.295482 0.678482
vt 0.287777 0.089945
vt 0.331432 0.102885
vt 0.000000 0.285862
vt 0.256862 0.318057
vt 0.627995 0.377709
vt 0.710067 0.025411
vt 0.649166 0.612479
vt 0.700845 0.321006
vt 1.000000 0.422106
vt 0.990747 0.589272
vt 0.883520 0.248728
vt 0.629946 0.331106
vt 0.211125 0.351409
vt 0.330944 0.423327
vt 0.835788 0.752046
vt 0.829566 0.818006
vt 0.761946 0.775704
vt 0.777505 0.857008
vt 0.706115 0.848441
vt 0.746145 0.782240
vt 0.667090 0.785336
vt 0.788343 0.694604
vt 0.749310 0.764544
vt 0.735191 0.686972
vt 0.689006 0.714363
vt 0.382344 0.695501
vt 0.333713 0.813414
vt 0.405745 0.810136
vt 0.405745 0.695501
vt 0.514578 0.722278
vt 0.467269 0.695504
vn 0.0399 -0.8024 -0.5954
vn 0.0848 0.0518 -0.9950
vn 0.1142 0.2674 -0.9568
vn 0.0171 0.7860 -0.6179
vn 0.0736 0.6613 -0.7465
vn 0.0526 0.8630 -0.5024
vn 0.2639 -0.3125 -0.9125
vn 0.1920 0.4246 -0.8848
vn 0.2857 -0.5295 -0.7987
vn 0.1401 -0.9685 -0.2057
vn 0.3239 0.6551 -0.6827
vn 0.2929 0.8523 -0.4334
vn 0.4717 0.0610 -0.8797
vn 0.6024 -0.3164 -0.7328
vn 0.5780 0.3978 -0.7125
vn 0.6396 -0.5675 -0.5185
vn 0.6468 0.6214 -0.4422
vn 0.7737 0.0583 -0.6308
vn 0.4958 -0.7765 -0.3889
vn 0.3435 -0.8939 -0.2879
vn 0.9035 0.0921 -0.4185
vn 0.4681 0.8565 -0.2176
vn 0.8357 -0.3265 -0.4415
vn 0.6562 0.7200 -0.2259
vn 0.9943 0.0652 -0.0845
vn 0.8331 -0.5381 -0.1277
vn 0.5055 0.8612 0.0542
vn 0.6044 -0.7936 0.0696
vn 0.6252 0.7756 0.0869
vn 0.8833 0.4634 0.0716
vn 0.2247 -0.9669 0.1208
vn 0.8477 -0.4748 0.2368
vn 0.0949 -0.9950 0.0299
vn 0.9597 -0.1387 0.2446
vn 0.9055 -0.2918 0.3080
vn 0.9460 0.0614 0.3184
vn 0.6415 0.6485 0.4099
vn 0.8231 0.2854 0.4910
vn 0.5324 -0.7785 0.3324
vn 0.6071 0.7349 0.3023
vn 0.8114 0.4669 0.3516
vn 0.6797 -0.5122 0.5251
vn 0.7752 -0.1256 0.6191
vn 0.3627 0.8846 0.2932
vn 0.7090 -0.3369 0.6196
vn 0.6311 0.2189 0.7442
vn 0.2569 -0.9076 0.3321
vn 0.4193 0.4444 0.7916
vn 0.4967 -0.1015 0.8620
vn 0.2706 0.8424 0.4660
vn 0.4343 -0.2957 0.8509
vn 0.3711 0.0953 0.9237
vn 0.2903 -0.6521 0.7004
vn 0.1711 -0.7685 0.6166
vn 0.1944 0.7315 0.6535
vn 0.1037 0.4369 0.8935
vn 0.1130 0.1042 0.9881
vn -0.0609 0.7600 0.6471
vn -0.0654 -0.5031 0.8618
vn -0.0815 0.8477 0.5241
vn -0.2857 -0.1404 0.9480
vn -0.3056 0.2455 0.9200
vn -0.1520 -0.7995 0.5811
vn -0.2248 0.4510 0.8638
vn -0.2980 0.7267 0.6189
vn -0.3912 -0.5034 0.7704
vn -0.5271 -0.4672 0.7099
vn -0.6050 -0.1045 0.7893
vn -0.6213 -0.3368 0.7075
vn -0.6223 0.2747 0.7330
vn -0.4658 -0.8122 0.3511
vn -0.4641 0.7632 0.4496
vn -0.4178 0.8331 0.3624
vn -0.5903 -0.6373 0.4954
vn -0.0735 -0.9969 0.0282
vn -0.6944 0.6029 0.3929
vn -0.8703 -0.0860 0.4850
vn -0.8384 -0.3375 0.4279
vn -0.8328 0.3044 0.4624
vn -0.3348 -0.9272 0.1681
vn -0.2296 -0.9626 0.1437
vn -0.4968 0.8617 0.1038
vn -0.7313 -0.6486 0.2111
vn -0.9350 0.2670 0.2336
vn -0.9852 -0.1278 0.1145
vn -0.9378 -0.3396 0.0725
vn -0.7553 0.6484 0.0954
vn -0.9300 -0.3410 -0.1373
vn -0.9396 0.3323 -0.0818
vn -0.5637 -0.8245 -0.0492
vn -0.7552 -0.6363 -0.1574
vn -0.8104 -0.5322 -0.2449
vn -0.7350 0.6427 -0.2162
vn -0.9619 -0.0940 -0.2567
vn -0.6968 0.6153 -0.3685
vn -0.4684 0.8670 -0.1701
vn -0.8318 -0.3138 -0.4579
vn -0.8643 0.2245 -0.4500
vn -0.7659 -0.0061 -0.6430
vn -0.3468 -0.8943 -0.2826
vn -0.6978 0.4078 -0.5888
vn -0.6818 -0.5060 -0.5283
vn -0.6056 -0.2001 -0.7702
vn -0.3225 0.8594 -0.3968
vn -0.4599 -0.3321 -0.8236
vn -0.4859 0.0844 -0.8699
vn -0.2406 -0.7754 -0.5839
vn -0.3367 0.7258 -0.5999
vn -0.4153 -0.6492 -0.6372
vn -0.1043 -0.9644 -0.2429
vn -0.1591 0.5822 -0.7973
vn -0.2767 0.0518 -0.9596
vn -0.3017 0.2502 -0.9200
vn -0.0933 -0.5032 -0.8591
vn -0.3634 -0.2514 0.8971
vn -0.0986 -0.3085 -0.9461
vn 0.4490 0.2712 -0.8514
vn 0.7778 -0.0531 0.6262
vn 0.9777 -0.1952 -0.0777
vn -0.9226 -0.2478 0.2956
vn 0.2695 0.1178 0.9558
vn 0.9462 0.2251 -0.2326
vn -0.3932 0.3152 -0.8637
vn -0.9274 0.0482 -0.3710
vn 0.2962 -0.1918 -0.9357
vn -0.1417 0.9251 -0.3522
vn 0.8417 0.0515 -0.5374
vn 0.4416 0.4174 0.7942
vn 0.8030 -0.3803 0.4588
vn -0.6045 0.3298 0.7251
vn -0.7002 0.3648 -0.6137
vn -0.2476 0.9671 -0.0577
vn 0.0284 0.9360 0.3507
vn 0.2211 0.9204 -0.3225
vn 0.1494 0.1436 -0.9783
vn 0.0568 -0.8483 -0.5265
vn 0.0744 0.6625 -0.7453
vn 0.0176 0.8887 -0.4582
vn 0.0884 -0.1970 -0.9764
vn 0.2345 -0.7138 -0.6599
vn 0.2438 -0.4795 -0.8430
vn 0.4333 0.4904 -0.7561
vn 0.4596 -0.1894 -0.8677
vn 0.4755 0.0555 -0.8780
vn 0.3705 0.7615 -0.5318
vn 0.5371 0.5158 -0.6675
vn 0.5667 -0.4447 -0.6936
vn 0.3070 0.8800 -0.3624
vn 0.2660 -0.9383 -0.2209
vn 0.7443 -0.2113 -0.6335
vn 0.7615 0.0712 -0.6442
vn 0.5001 -0.7599 -0.4153
vn 0.3710 -0.8812 -0.2929
vn 0.6758 0.5294 -0.5129
vn 0.7847 -0.4583 -0.4174
vn 0.6724 0.6974 -0.2480
vn 0.9088 -0.2337 -0.3457
vn 0.9286 0.1644 -0.3328
vn 0.8952 0.3160 -0.3142
vn 0.6880 -0.7188 -0.0993
vn 0.8679 0.4851 -0.1069
vn 0.8834 -0.4654 -0.0544
vn 0.9916 -0.1196 -0.0493
vn 0.4168 0.9084 -0.0330
vn 0.9599 -0.2479 -0.1310
vn 0.9786 0.1901 0.0793
vn 0.6431 0.7627 0.0689
vn 0.5058 -0.8624 0.0234
vn 0.8754 0.4751 0.0891
vn 0.6199 -0.7653 0.1732
vn 0.2786 -0.9580 0.0680
vn 0.8476 -0.4750 0.2364
vn 0.8933 0.1143 0.4347
vn 0.3613 0.8849 0.2938
vn 0.5600 -0.6343 0.5329
vn 0.7715 -0.2351 0.5912
vn 0.7302 0.3019 0.6129
vn 0.5311 0.5395 0.6534
vn 0.2184 -0.9347 0.2806
vn 0.5325 0.6265 0.5691
vn 0.6469 -0.0217 0.7623
vn 0.3562 -0.6214 0.6978
vn 0.4354 -0.2947 0.8506
vn 0.4900 0.2854 0.8237
vn 0.2881 0.7827 0.5517
vn 0.2465 0.5026 0.8286
vn 0.1219 0.9012 0.4159
vn 0.0171 -0.4768 0.8788
vn 0.0590 -0.1188 0.9912
vn 0.1431 -0.2849 0.9478
vn 0.1146 0.1057 0.9878
vn -0.0735 -0.7737 0.6293
vn -0.0946 0.7828 0.6151
vn -0.0894 0.5026 0.8599
vn -0.0871 -0.9405 0.3284
vn -0.2595 -0.4371 0.8611
vn -0.3266 -0.0899 0.9409
vn -0.1585 0.9114 0.3798
vn -0.2667 0.1491 0.9522
vn -0.2662 -0.7715 0.5778
vn -0.3773 0.5441 0.7494
vn -0.6465 -0.0452 0.7616
vn -0.6251 0.2720 0.7316
vn -0.5231 0.4933 0.6950
vn -0.4548 -0.7757 0.4374
vn -0.6011 0.6481 0.4675
vn -0.8708 -0.0848 0.4842
vn -0.7286 -0.5751 0.3719
vn -0.8331 -0.3005 0.4643
vn -0.8387 0.2976 0.4561
vn -0.2280 -0.9635 0.1406
vn -0.6693 -0.7170 0.1948
vn -0.9699 -0.0295 0.2419
vn -0.4430 0.8839 0.1497
vn -0.8121 -0.5776 0.0833
vn -0.9474 -0.3005 0.1101
vn -0.9377 0.3329 0.0994
vn -0.7472 0.6558 0.1080
vn -0.5591 -0.8276 -0.0491
vn -0.9935 -0.0038 -0.1141
vn -0.9564 0.2490 -0.1528
vn -0.9410 -0.1951 -0.2766
vn -0.6599 -0.7313 -0.1727
vn -0.7401 0.6296 -0.2364
vn -0.7705 -0.4471 -0.4543
vn -0.4305 0.8810 -0.1963
vn -0.8715 0.1233 -0.4747
vn -0.5653 -0.6339 -0.5278
vn -0.6725 0.4533 -0.5850
vn -0.5486 -0.7531 -0.3631
vn -0.2901 -0.9113 -0.2922
vn -0.2967 -0.9205 -0.2542
vn -0.7462 -0.1041 -0.6575
vn -0.5290 0.4935 -0.6904
vn -0.3208 0.8458 -0.4262
vn -0.5533 -0.2866 -0.7822
vn -0.6603 0.1458 -0.7367
vn -0.3666 0.7846 -0.5001
vn -0.3640 -0.4991 -0.7864
vn -0.3466 0.6749 -0.6515
vn -0.2592 -0.2105 -0.9426
vn -0.3380 0.1312 -0.9319
vn -0.1894 0.3397 -0.9212
vn -0.0567 -0.7706 -0.6348
vn -0.0184 -0.9589 -0.2830
vn -0.0859 -0.4950 -0.8647
vn -0.0001 1.0000 -0.0003
vn -0.0003 1.0000 -0.0002
vn 0.0000 1.0000 -0.0000
vn -0.0003 1.0000 0.0009
vn 0.0002 1.0000 -0.0002
vn 0.0019 1.0000 0.0043
vn -0.0011 1.0000 0.0002
vn -0.0010 1.0000 -0.0004
vn -0.0004 1.0000 -0.0010
vn 0.0035 1.0000 -0.0003
vn -0.9819 0.0482 0.1829
vn 0.8174 0.1320 0.5607
vn -0.5949 -0.1083 -0.7965
vn -0.9171 -0.0218 -0.3980
vn 0.6376 -0.1727 -0.7508
vn 0.2503 0.0588 0.9664
vn 0.0357 -0.2927 -0.9555
vn -0.5537 0.3177 0.7698
s off
f 12/1/1 13/2/1 6/3/1
f 1/4/2 11/5/2 4/6/2
f 2/7/3 15/8/3 1/4/3
f 113/9/4 9/10/4 3/11/4
f 3/12/5 8/13/5 2/7/5
f 113/9/6 10/14/6 9/10/6
f 11/5/7 16/15/7 5/16/7
f 8/13/8 15/8/8 2/7/8
f 12/17/9 16/15/9 17/18/9
f 7/19/10 14/20/10 21/21/10
f 9/22/11 19/23/11 8/13/11
f 9/10/12 10/14/12 25/24/12
f 11/5/13 18/25/13 20/26/13
f 16/15/14 20/26/14 23/27/14
f 19/23/15 24/28/15 15/8/15
f 17/29/16 23/30/16 27/31/16
f 19/32/17 25/24/17 30/33/17
f 20/34/18 24/35/18 26/36/18
f 13/2/19 27/37/19 28/38/19
f 13/2/20 29/39/20 14/20/20
f 26/36/21 24/35/21 34/40/21
f 22/41/22 31/42/22 25/24/22
f 23/30/23 26/36/23 32/43/23
f 31/42/24 35/44/24 25/24/24
f 34/40/25 33/45/25 37/46/25
f 32/43/26 39/47/26 27/31/26
f 36/48/27 42/49/27 31/42/27
f 28/38/28 39/50/28 43/51/28
f 31/42/29 41/52/29 35/44/29
f 35/53/30 40/54/30 33/45/30
f 21/21/31 43/51/31 47/55/31
f 38/56/32 46/57/32 39/47/32
f 7/19/33 21/21/33 47/55/33
f 37/46/34 44/58/34 38/56/34
f 38/56/35 44/58/35 45/59/35
f 37/46/36 40/54/36 44/58/36
f 41/60/37 50/61/37 49/62/37
f 40/54/38 49/62/38 48/63/38
f 43/51/39 46/64/39 55/65/39
f 42/49/40 50/66/40 41/52/40
f 41/60/41 49/62/41 40/54/41
f 45/59/42 54/67/42 46/57/42
f 48/63/43 53/68/43 44/58/43
f 36/48/44 50/66/44 42/49/44
f 45/59/45 53/68/45 54/67/45
f 48/69/46 51/70/46 56/71/46
f 55/65/47 64/72/47 43/51/47
f 57/73/48 58/74/48 51/70/48
f 56/71/49 60/75/49 53/76/49
f 52/77/50 59/78/50 50/66/50
f 54/79/51 60/75/51 61/80/51
f 56/71/52 58/74/52 60/75/52
f 61/80/53 68/81/53 55/82/53
f 55/65/54 68/83/54 64/72/54
f 59/78/55 62/84/55 57/85/55
f 62/86/56 65/87/56 58/74/56
f 60/75/57 65/87/57 66/88/57
f 59/78/58 69/89/58 62/84/58
f 67/90/59 71/91/59 68/81/59
f 59/78/60 63/92/60 70/93/60
f 66/88/61 75/94/61 67/90/61
f 65/87/62 73/95/62 72/96/62
f 64/72/63 71/97/63 76/98/63
f 69/99/64 73/95/64 65/87/64
f 70/93/65 77/100/65 69/89/65
f 75/94/66 78/101/66 71/91/66
f 75/94/67 82/102/67 78/101/67
f 72/96/68 81/103/68 75/94/68
f 75/94/69 81/103/69 82/102/69
f 72/96/70 80/104/70 79/105/70
f 76/98/71 84/106/71 85/107/71
f 70/93/72 83/108/72 77/100/72
f 74/109/73 83/108/73 70/93/73
f 82/110/74 84/106/74 78/111/74
f 7/19/75 47/55/75 91/112/75
f 83/113/76 87/114/76 80/115/76
f 79/116/77 88/117/77 81/118/77
f 82/119/78 88/117/78 89/120/78
f 79/116/79 87/114/79 86/121/79
f 76/98/80 85/107/80 90/122/80
f 47/55/81 90/122/81 91/112/81
f 83/108/82 93/123/82 96/124/82
f 89/120/83 94/125/83 84/126/83
f 86/121/84 87/114/84 92/127/84
f 92/127/85 97/128/85 88/117/85
f 89/120/86 97/128/86 98/129/86
f 87/114/87 96/130/87 95/131/87
f 98/129/88 97/128/88 101/132/88
f 92/127/89 100/133/89 99/134/89
f 85/107/90 94/135/90 102/136/90
f 98/129/91 105/137/91 94/125/91
f 101/132/92 105/137/92 98/129/92
f 95/131/93 103/138/93 100/133/93
f 99/134/94 104/139/94 97/128/94
f 100/133/95 103/138/95 108/140/95
f 93/123/96 103/141/96 96/124/96
f 101/132/97 104/139/97 110/142/97
f 99/134/98 100/133/98 106/143/98
f 104/139/99 106/143/99 109/144/99
f 90/122/100 111/145/100 6/3/100
f 100/133/101 108/140/101 112/146/101
f 110/142/102 115/147/102 105/137/102
f 109/148/103 117/149/103 110/150/103
f 103/141/104 114/151/104 113/9/104
f 117/149/105 118/152/105 115/153/105
f 109/148/106 112/154/106 117/149/106
f 111/145/107 119/155/107 6/3/107
f 113/9/108 3/11/108 108/156/108
f 115/157/109 119/155/109 111/145/109
f 91/112/110 6/3/110 7/19/110
f 3/12/111 2/7/111 116/158/111
f 117/149/112 1/4/112 4/6/112
f 112/154/113 116/158/113 1/4/113
f 118/152/114 12/17/114 119/159/114
f 63/160/115 124/161/115 74/162/115
f 4/6/116 5/16/116 118/152/116
f 10/163/117 120/164/117 121/165/117
f 36/166/118 123/167/118 52/168/118
f 22/169/119 122/170/119 36/166/119
f 74/171/120 125/172/120 93/173/120
f 52/174/121 124/161/121 63/160/121
f 22/169/122 121/175/122 122/170/122
f 114/176/123 127/177/123 120/164/123
f 93/173/124 126/178/124 127/179/124
s 1
f 132/180/125 128/181/126 129/182/127
f 130/183/128 133/184/129 129/185/127
f 128/186/126 134/187/130 130/188/128
f 131/189/131 135/190/132 134/187/130
f 134/191/130 136/192/133 133/193/129
f 131/189/131 134/187/130 128/186/126
f 132/180/125 131/194/131 128/181/126
f 133/195/129 132/180/125 129/182/127
f 130/196/128 134/191/130 133/193/129
f 137/197/134 135/198/132 132/180/125
f 137/199/134 133/184/129 136/200/133
f 130/201/128 129/202/127 128/203/126
s off
f 1/4/135 15/8/135 11/5/135
f 6/3/136 13/2/136 14/20/136
f 3/12/137 9/22/137 8/13/137
f 113/9/138 114/151/138 10/14/138
f 5/16/139 4/6/139 11/5/139
f 12/1/140 17/204/140 13/2/140
f 12/17/141 5/16/141 16/15/141
f 8/13/142 19/23/142 15/8/142
f 16/15/143 11/5/143 20/26/143
f 11/5/144 15/8/144 18/25/144
f 9/10/145 25/24/145 19/32/145
f 15/8/146 24/28/146 18/25/146
f 17/18/147 16/15/147 23/27/147
f 25/24/148 10/14/148 22/41/148
f 14/20/149 29/39/149 21/21/149
f 23/30/150 20/34/150 26/36/150
f 20/34/151 18/205/151 24/35/151
f 13/2/152 17/204/152 27/37/152
f 13/2/153 28/38/153 29/39/153
f 19/23/154 30/206/154 24/28/154
f 27/31/155 23/30/155 32/43/155
f 30/207/156 25/208/156 35/53/156
f 32/43/157 26/36/157 34/40/157
f 34/40/158 24/35/158 33/45/158
f 24/35/159 30/207/159 33/45/159
f 28/38/160 27/37/160 39/50/160
f 30/207/161 35/53/161 33/45/161
f 32/43/162 38/56/162 39/47/162
f 34/40/163 37/46/163 38/56/163
f 22/41/164 36/48/164 31/42/164
f 32/43/165 34/40/165 38/56/165
f 37/46/166 33/45/166 40/54/166
f 31/42/167 42/49/167 41/52/167
f 28/38/168 43/51/168 29/39/168
f 35/53/169 41/60/169 40/54/169
f 43/51/170 39/50/170 46/64/170
f 21/21/171 29/39/171 43/51/171
f 38/56/172 45/59/172 46/57/172
f 44/58/173 40/54/173 48/63/173
f 36/48/174 52/77/174 50/66/174
f 46/57/175 54/67/175 55/209/175
f 45/59/176 44/58/176 53/68/176
f 48/63/177 49/62/177 51/210/177
f 49/211/178 57/73/178 51/70/178
f 47/55/179 43/51/179 64/72/179
f 49/212/180 50/66/180 57/85/180
f 48/69/181 56/71/181 53/76/181
f 54/79/182 61/80/182 55/82/182
f 54/79/183 53/76/183 60/75/183
f 56/71/184 51/70/184 58/74/184
f 50/66/185 59/78/185 57/85/185
f 57/73/186 62/86/186 58/74/186
f 59/78/187 52/77/187 63/92/187
f 61/80/188 67/90/188 68/81/188
f 60/75/189 66/88/189 67/90/189
f 61/80/190 60/75/190 67/90/190
f 60/75/191 58/74/191 65/87/191
f 64/72/192 68/83/192 71/97/192
f 59/78/193 70/93/193 69/89/193
f 62/86/194 69/99/194 65/87/194
f 64/72/195 76/98/195 47/55/195
f 67/90/196 75/94/196 71/91/196
f 66/88/197 72/96/197 75/94/197
f 63/92/198 74/109/198 70/93/198
f 66/88/199 65/87/199 72/96/199
f 76/98/200 71/97/200 78/111/200
f 73/95/201 69/99/201 77/213/201
f 72/96/202 79/105/202 81/103/202
f 72/96/203 73/95/203 80/104/203
f 73/95/204 77/213/204 80/104/204
f 76/98/205 78/111/205 84/106/205
f 80/214/206 77/100/206 83/108/206
f 79/116/207 86/121/207 88/117/207
f 82/110/208 89/215/208 84/106/208
f 82/119/209 81/118/209 88/117/209
f 79/116/210 80/115/210 87/114/210
f 47/55/211 76/98/211 90/122/211
f 85/107/212 84/106/212 94/135/212
f 86/121/213 92/127/213 88/117/213
f 83/108/214 74/109/214 93/123/214
f 89/120/215 98/129/215 94/125/215
f 89/120/216 88/117/216 97/128/216
f 92/127/217 87/114/217 95/131/217
f 87/114/218 83/113/218 96/130/218
f 85/107/219 102/136/219 90/122/219
f 92/127/220 99/134/220 97/128/220
f 92/127/221 95/131/221 100/133/221
f 101/132/222 97/128/222 104/139/222
f 102/136/223 94/135/223 105/216/223
f 95/131/224 96/130/224 103/138/224
f 101/132/225 110/142/225 105/137/225
f 93/123/226 107/217/226 103/141/226
f 104/139/227 99/134/227 106/143/227
f 105/216/228 115/157/228 111/145/228
f 106/143/229 100/133/229 112/146/229
f 102/136/230 105/216/230 111/145/230
f 90/122/231 102/136/231 111/145/231
f 91/112/232 90/122/232 6/3/232
f 104/139/233 109/144/233 110/142/233
f 112/146/234 108/140/234 116/218/234
f 103/141/235 107/217/235 114/151/235
f 110/150/236 117/149/236 115/153/236
f 109/148/237 106/219/237 112/154/237
f 103/141/238 113/9/238 108/156/238
f 115/153/239 118/152/239 119/159/239
f 108/220/240 3/12/240 116/158/240
f 117/149/241 4/6/241 118/152/241
f 117/149/242 112/154/242 1/4/242
f 1/4/243 116/158/243 2/7/243
f 119/155/244 12/1/244 6/3/244
f 6/3/245 14/20/245 7/19/245
f 118/152/246 5/16/246 12/17/246
f 124/221/247 123/222/247 136/223/247
f 123/222/248 122/224/248 136/223/248
f 122/224/249 121/225/249 137/226/249
f 121/225/249 120/227/249 137/226/249
f 122/224/250 137/226/250 136/223/250
f 125/228/251 124/221/251 136/223/251
f 125/228/252 136/223/252 135/229/252
f 126/230/253 125/228/253 135/229/253
f 127/231/254 126/230/254 135/229/254
f 127/231/255 135/229/255 120/227/255
f 135/229/256 137/226/256 120/227/256
f 93/173/257 125/172/257 126/178/257
f 36/166/258 122/170/258 123/167/258
f 114/176/259 107/232/259 127/177/259
f 107/233/260 93/173/260 127/179/260
f 22/169/261 10/163/261 121/165/261
f 52/174/262 123/234/262 124/161/262
f 10/163/263 114/176/263 120/164/263
f 74/162/264 124/161/264 125/235/264
s 1
f 135/198/132 131/194/131 132/180/125
f 132/236/125 133/184/129 137/199/134
f 136/192/133 134/191/130 135/237/132
